<?xml version="1.0" encoding="utf-8"?>
<svg xmlns="http://www.w3.org/2000/svg" style="margin: auto; background: rgb(255, 251, 243); display: block; shape-rendering: auto;" width="290" height="250" preserveAspectRatio="xMidYMid">
<style type="text/css">
  text {
    text-anchor: middle; font-size: 48px; opacity: 0;
  }
</style>
<g transform="translate(145,125)">
  <g transform="translate(0,0)"><g class="path" style="transform-origin: -87.07px 1.17224px; transform: scale(0.91); animation: 1s linear -0.6s infinite normal forwards running breath-e5e6472a-b182-41fb-9129-fe9933200623;"><path d="M14.83 9.31L14.83 9.31L14.83 9.31Q19.87 9.31 22.68 7.25L22.68 7.25L22.68 7.25Q25.49 5.18 25.49 1.78L25.49 1.78L25.49 1.78Q25.49-0.67 24.26-2.54L24.26-2.54L24.26-2.54Q23.04-4.42 21.22-5.64L21.22-5.64L21.22-5.64Q19.39-6.86 17.50-8.06L17.50-8.06L17.50-8.06Q15.60-9.26 13.97-11.09L13.97-11.09L13.97-11.09Q12.34-12.91 11.81-15.22L11.81-15.22L11.81-15.22Q7.44-16.51 6.05-20.64L6.05-20.64L6.05-20.64Q5.52-22.22 5.52-23.95L5.52-23.95L5.52-23.95Q5.52-25.68 6.05-27.55L6.05-27.55L6.05-27.55Q7.15-31.25 9.65-33.12L9.65-33.12L10.18-32.35L10.18-32.35Q7.92-30.72 6.91-27.26L6.91-27.26L6.91-27.26Q6.43-25.54 6.43-23.95L6.43-23.95L6.43-23.95Q6.43-22.37 6.91-20.93L6.91-20.93L6.91-20.93Q8.06-17.42 11.66-16.22L11.66-16.22L11.66-16.22Q11.57-16.75 11.57-17.86L11.57-17.86L11.57-17.86Q11.57-24.14 16.13-28.03L16.13-28.03L16.13-28.03Q20.69-31.92 27.26-31.92L27.26-31.92L27.26-31.92Q31.58-31.92 34.18-29.57L34.18-29.57L34.18-29.57Q36.38-27.50 36.38-24.50L36.38-24.50L36.38-24.50Q36.38-21.50 34.37-19.32L34.37-19.32L34.37-19.32Q32.35-17.14 28.94-17.14L28.94-17.14L28.94-17.14Q27.07-17.14 25.87-17.86L25.87-17.86L25.87-17.86Q23.42-15.98 20.06-15.17L20.06-15.17L20.06-15.17Q21.02-14.26 24.55-11.81L24.55-11.81L24.55-11.81Q28.08-9.36 29.83-7.13L29.83-7.13L29.83-7.13Q31.58-4.90 31.58-1.92L31.58-1.92L31.58-1.92Q31.58 3.55 27.34 6.96L27.34 6.96L27.34 6.96Q23.09 10.37 16.58 10.37L16.58 10.37L16.58 10.37Q10.08 10.37 6.77 7.49L6.77 7.49L6.77 7.49Q3.89 5.04 3.89 1.51L3.89 1.51L3.89 1.51Q3.89-2.02 6.17-4.54L6.17-4.54L6.17-4.54Q8.45-7.06 11.86-7.06L11.86-7.06L11.86-7.06Q15.26-7.06 16.90-5.54L16.90-5.54L16.90-5.54Q18.53-4.03 18.53-1.87L18.53-1.87L18.53-1.87Q18.53 0.29 17.21 1.97L17.21 1.97L17.21 1.97Q15.89 3.65 13.78 3.65L13.78 3.65L13.78 3.65Q11.66 3.65 10.42 2.30L10.42 2.30L10.42 2.30Q9.26 1.15 9.12-0.58L9.12-0.58L9.12-0.58Q9.07-1.06 9.12-1.15L9.12-1.15L10.03-1.10L10.03-1.10Q9.98 0.58 11.09 1.68L11.09 1.68L11.09 1.68Q12 2.69 13.75 2.69L13.75 2.69L13.75 2.69Q15.50 2.69 16.56 1.32L16.56 1.32L16.56 1.32Q17.62-0.05 17.62-1.85L17.62-1.85L17.62-1.85Q17.62-3.65 16.37-4.75L16.37-4.75L16.37-4.75Q14.98-6.14 11.90-6.14L11.90-6.14L11.90-6.14Q8.83-6.14 6.82-3.91L6.82-3.91L6.82-3.91Q4.80-1.68 4.80 1.46L4.80 1.46L4.80 1.46Q4.80 4.61 7.39 6.82L7.39 6.82L7.39 6.82Q8.93 8.16 10.54 8.74L10.54 8.74L10.54 8.74Q12.14 9.31 14.83 9.31zM22.99-23.71L22.99-23.71L22.99-23.71Q22.99-25.82 24.07-27.22L24.07-27.22L24.07-27.22Q25.15-28.61 27.02-28.61L27.02-28.61L27.02-28.61Q30.24-28.61 30.24-25.08L30.24-25.08L30.24-25.08Q30.24-21.55 26.74-18.43L26.74-18.43L26.74-18.43Q27.79-17.95 28.94-17.95L28.94-17.95L28.94-17.95Q31.92-17.95 33.70-19.90L33.70-19.90L33.70-19.90Q35.47-21.84 35.47-24.46L35.47-24.46L35.47-24.46Q35.47-27.07 33.55-28.90L33.55-28.90L33.55-28.90Q31.20-31.01 27.36-31.01L27.36-31.01L27.36-31.01Q23.52-31.01 20.83-29.14L20.83-29.14L20.83-29.14Q16.66-26.16 16.66-21.46L16.66-21.46L16.66-21.46Q16.66-17.57 19.25-15.79L19.25-15.79L19.25-15.79Q22.46-16.51 25.20-18.38L25.20-18.38L25.20-18.38Q22.99-20.35 22.99-23.71zM26.98-27.74L26.98-27.74L26.98-27.74Q25.54-27.74 24.74-26.64L24.74-26.64L24.74-26.64Q23.95-25.54 23.95-23.71L23.95-23.71L23.95-23.71Q23.95-20.59 25.92-18.96L25.92-18.96L25.92-18.96Q27.36-19.97 28.32-21.70L28.32-21.70L28.32-21.70Q29.28-23.42 29.28-25.10L29.28-25.10L29.28-25.10Q29.28-27.74 26.98-27.74" fill="#7c807b" stroke="none" stroke-width="none" transform="translate(-107.20498657226562,12.54725108753552)" style="fill: rgb(124, 128, 123);"></path></g><g class="path" style="transform-origin: -60.385px -2.78774px; transform: scale(0.91); animation: 1s linear -0.54s infinite normal forwards running breath-e5e6472a-b182-41fb-9129-fe9933200623;"><path d="M43.82-9.26L43.82-9.26L42.10 0L36.38 0L41.81-30.14L41.81-30.14Q40.37-30 39.41-28.80L39.41-28.80L38.69-29.38L38.69-29.38Q40.13-31.10 42.31-31.10L42.31-31.10L42.31-31.10Q44.50-31.10 45.70-30L45.70-30L45.70-30Q46.90-28.90 46.90-26.88L46.90-26.88L46.90-26.88Q46.90-26.50 46.80-25.63L46.80-25.63L46.80-25.63Q45.70-19.54 44.40-12.48L44.40-12.48L44.40-12.48Q45.60-15.41 47.86-17.04L47.86-17.04L47.86-17.04Q50.11-18.67 52.66-18.67L52.66-18.67L52.66-18.67Q55.20-18.67 56.23-17.66L56.23-17.66L56.23-17.66Q57.26-16.66 57.26-15.14L57.26-15.14L57.26-15.14Q57.26-13.63 56.35-12.67L56.35-12.67L56.35-12.67Q55.44-11.71 53.98-11.71L53.98-11.71L53.98-11.71Q52.51-11.71 51.72-12.55L51.72-12.55L51.72-12.55Q50.93-13.39 50.93-15.05L50.93-15.05L50.93-15.05Q50.93-16.70 52.08-17.57L52.08-17.57L52.08-17.57Q47.47-17.04 44.74-10.75L44.74-10.75L44.74-10.75Q45.41-10.85 45.89-10.85L45.89-10.85L45.89-10.85Q48.43-10.85 49.90-9.84L49.90-9.84L49.90-9.84Q51.36-8.83 51.79-7.37L51.79-7.37L51.79-7.37Q52.22-5.90 52.42-4.44L52.42-4.44L52.42-4.44Q52.61-2.98 53.04-1.97L53.04-1.97L53.04-1.97Q53.47-0.96 54.58-0.96L54.58-0.96L54.58-0.96Q55.68-0.96 56.30-1.87L56.30-1.87L57.02-1.30L57.02-1.30Q56.69-0.62 55.54-0.10L55.54-0.10L55.54-0.10Q54.38 0.43 52.58 0.43L52.58 0.43L52.58 0.43Q50.78 0.43 49.42-0.48L49.42-0.48L49.42-0.48Q48.05-1.39 47.52-2.76L47.52-2.76L47.52-2.76Q46.99-4.13 46.66-5.47L46.66-5.47L46.66-5.47Q45.74-8.93 43.82-9.26" fill="#7c807b" stroke="none" stroke-width="none" transform="translate(-107.20498657226562,12.54725108753552)" style="fill: rgb(124, 128, 123);"></path></g><g class="path" style="transform-origin: -42.865px 3.42726px; transform: scale(0.91); animation: 1s linear -0.48s infinite normal forwards running breath-e5e6472a-b182-41fb-9129-fe9933200623;"><path d="M68.35-1.30L68.35-1.30Q66.91 0.43 64.75 0.43L64.75 0.43L64.75 0.43Q62.59 0.43 61.37-0.67L61.37-0.67L61.37-0.67Q60.14-1.78 60.14-3.55L60.14-3.55L60.14-3.55Q60.14-4.18 60.91-8.78L60.91-8.78L62.50-17.38L60.48-17.38L60.58-18.24L62.64-18.24L62.64-18.24Q66.19-18.24 67.87-18.53L67.87-18.53L68.54-18.67L65.23-0.53L65.23-0.53Q66.67-0.67 67.63-1.87L67.63-1.87L68.35-1.30" fill="#7c807b" stroke="none" stroke-width="none" transform="translate(-107.20498657226562,12.54725108753552)" style="fill: rgb(124, 128, 123);"></path></g><g class="path" style="transform-origin: -40.605px -13.2028px; transform: scale(0.91); animation: 1s linear -0.42s infinite normal forwards running breath-e5e6472a-b182-41fb-9129-fe9933200623;"><path d="M64.13-23.28L64.13-23.28L64.13-23.28Q63.12-24.29 63.12-25.73L63.12-25.73L63.12-25.73Q63.12-27.17 64.13-28.20L64.13-28.20L64.13-28.20Q65.14-29.23 66.58-29.23L66.58-29.23L66.58-29.23Q68.02-29.23 69.05-28.20L69.05-28.20L69.05-28.20Q70.08-27.17 70.08-25.73L70.08-25.73L70.08-25.73Q70.08-24.29 69.05-23.28L69.05-23.28L69.05-23.28Q68.02-22.27 66.58-22.27L66.58-22.27L66.58-22.27Q65.14-22.27 64.13-23.28" fill="#7c807b" stroke="none" stroke-width="none" transform="translate(-107.20498657226562,12.54725108753552)" style="fill: rgb(124, 128, 123);"></path></g><g class="path" style="transform-origin: -29.18px -2.78774px; transform: scale(0.91); animation: 1s linear -0.36s infinite normal forwards running breath-e5e6472a-b182-41fb-9129-fe9933200623;"><path d="M79.87-1.73L79.87-1.73L79.87-1.73Q79.25-0.91 78.17-0.24L78.17-0.24L78.17-0.24Q77.09 0.43 75.36 0.43L75.36 0.43L75.36 0.43Q73.63 0.43 72.43-0.67L72.43-0.67L72.43-0.67Q71.23-1.78 71.23-3.79L71.23-3.79L71.23-3.79Q71.23-4.18 71.33-5.04L71.33-5.04L74.45-22.32L74.45-22.32Q75.31-27.07 76.82-29.09L76.82-29.09L76.82-29.09Q78.34-31.10 80.83-31.10L80.83-31.10L80.83-31.10Q82.56-31.10 83.69-29.81L83.69-29.81L83.69-29.81Q84.82-28.51 84.82-25.87L84.82-25.87L84.82-25.87Q84.82-23.23 82.78-18.34L82.78-18.34L82.78-18.34Q80.74-13.44 80.74-11.18L80.74-11.18L79.87-11.18L79.87-11.18Q79.87-13.73 81.89-18.46L81.89-18.46L81.89-18.46Q83.90-23.18 83.90-26.02L83.90-26.02L83.90-26.02Q83.90-27.74 83.11-28.99L83.11-28.99L83.11-28.99Q82.32-30.24 81.17-30.24L81.17-30.24L81.17-30.24Q81.12-28.99 79.51-19.03L79.51-19.03L79.51-19.03Q77.90-9.07 76.32-0.53L76.32-0.53L76.32-0.53Q77.66-0.53 78.82-1.92L78.82-1.92L78.82-1.92Q79.97-3.31 80.45-4.70L80.45-4.70L80.98-6.14L81.84-5.76L81.84-5.76Q81.70-5.09 81.10-3.82L81.10-3.82L81.10-3.82Q80.50-2.54 79.87-1.73" fill="#7c807b" stroke="none" stroke-width="none" transform="translate(-107.20498657226562,12.54725108753552)" style="fill: rgb(124, 128, 123);"></path></g><g class="path" style="transform-origin: -15.835px -2.78774px; transform: scale(0.91); animation: 1s linear -0.3s infinite normal forwards running breath-e5e6472a-b182-41fb-9129-fe9933200623;"><path d="M93.22-1.73L93.22-1.73L93.22-1.73Q92.59-0.91 91.51-0.24L91.51-0.24L91.51-0.24Q90.43 0.43 88.70 0.43L88.70 0.43L88.70 0.43Q86.98 0.43 85.78-0.67L85.78-0.67L85.78-0.67Q84.58-1.78 84.58-3.79L84.58-3.79L84.58-3.79Q84.58-4.18 84.67-5.04L84.67-5.04L87.79-22.32L87.79-22.32Q88.66-27.07 90.17-29.09L90.17-29.09L90.17-29.09Q91.68-31.10 94.18-31.10L94.18-31.10L94.18-31.10Q95.90-31.10 97.03-29.81L97.03-29.81L97.03-29.81Q98.16-28.51 98.16-25.87L98.16-25.87L98.16-25.87Q98.16-23.23 96.12-18.34L96.12-18.34L96.12-18.34Q94.08-13.44 94.08-11.18L94.08-11.18L93.22-11.18L93.22-11.18Q93.22-13.73 95.23-18.46L95.23-18.46L95.23-18.46Q97.25-23.18 97.25-26.02L97.25-26.02L97.25-26.02Q97.25-27.74 96.46-28.99L96.46-28.99L96.46-28.99Q95.66-30.24 94.51-30.24L94.51-30.24L94.51-30.24Q94.46-28.99 92.86-19.03L92.86-19.03L92.86-19.03Q91.25-9.07 89.66-0.53L89.66-0.53L89.66-0.53Q91.01-0.53 92.16-1.92L92.16-1.92L92.16-1.92Q93.31-3.31 93.79-4.70L93.79-4.70L94.32-6.14L95.18-5.76L95.18-5.76Q95.04-5.09 94.44-3.82L94.44-3.82L94.44-3.82Q93.84-2.54 93.22-1.73" fill="#7c807b" stroke="none" stroke-width="none" transform="translate(-107.20498657226562,12.54725108753552)" style="fill: rgb(124, 128, 123);"></path></g><g class="path" style="transform-origin: -2.56497px 2.32226px; transform: scale(0.91); animation: 1s linear -0.24s infinite normal forwards running breath-e5e6472a-b182-41fb-9129-fe9933200623;"><path d="M102.29-0.82L102.29-0.82L102.29-0.82Q107.04-0.82 107.04-7.82L107.04-7.82L107.04-7.82Q107.04-9.55 106.54-11.90L106.54-11.90L106.54-11.90Q106.03-14.26 105.94-14.83L105.94-14.83L105.94-14.83Q103.01-11.81 99.36-11.18L99.36-11.18L99.36-12.34L99.36-12.34Q102.82-13.10 105.84-16.27L105.84-16.27L105.84-16.46L105.84-16.46Q105.84-17.62 106.18-18.72L106.18-18.72L106.18-18.72Q106.51-19.82 106.85-20.35L106.85-20.35L107.18-20.88L108.34-20.88L108.34-20.88Q108.34-18.77 109.01-17.02L109.01-17.02L109.01-17.02Q109.68-15.26 110.50-14.18L110.50-14.18L110.50-14.18Q111.31-13.10 111.98-11.35L111.98-11.35L111.98-11.35Q112.66-9.60 112.66-7.49L112.66-7.49L112.66-7.49Q112.66-4.08 110.09-1.82L110.09-1.82L110.09-1.82Q107.52 0.43 103.92 0.43L103.92 0.43L103.92 0.43Q100.32 0.43 98.47-1.20L98.47-1.20L98.47-1.20Q96.62-2.83 96.62-4.97L96.62-4.97L96.62-4.97Q96.62-7.10 97.68-8.04L97.68-8.04L97.68-8.04Q98.74-8.98 100.18-8.98L100.18-8.98L100.18-8.98Q101.62-8.98 102.55-8.04L102.55-8.04L102.55-8.04Q103.49-7.10 103.49-5.64L103.49-5.64L103.49-5.64Q103.49-4.18 102.58-3.17L102.58-3.17L102.58-3.17Q101.66-2.16 100.22-2.16L100.22-2.16L100.22-2.16Q99.60-2.16 98.93-2.35L98.93-2.35L98.93-2.35Q99.98-0.82 102.29-0.82" fill="#7c807b" stroke="none" stroke-width="none" transform="translate(-107.20498657226562,12.54725108753552)" style="fill: rgb(124, 128, 123);"></path></g><g class="path" style="transform-origin: 42.22px 0.502243px; transform: scale(0.91); animation: 1s linear -0.18s infinite normal forwards running breath-e5e6472a-b182-41fb-9129-fe9933200623;"><path d="M133.13-8.74L133.13-8.74L133.13-8.74Q131.81-9.74 130.80-11.81L130.80-11.81L130.80-11.81Q129.79-13.87 129.79-16.46L129.79-16.46L129.79-16.46Q129.79-19.06 130.61-21.26L130.61-21.26L130.61-21.26Q131.42-23.47 133.03-25.27L133.03-25.27L133.03-25.27Q134.64-27.07 137.33-28.15L137.33-28.15L137.33-28.15Q140.02-29.23 143.04-29.23L143.04-29.23L143.04-29.23Q146.06-29.23 148.51-28.78L148.51-28.78L148.51-28.78Q150.96-28.32 152.35-27.82L152.35-27.82L152.35-27.82Q153.74-27.31 154.82-26.86L154.82-26.86L154.82-26.86Q155.90-26.40 156.58-26.14L156.58-26.14L156.58-26.14Q157.25-25.87 157.39-25.82L157.39-25.82L157.39-25.82Q157.54-25.78 158.16-25.54L158.16-25.54L158.16-25.54Q158.78-25.30 159-25.25L159-25.25L159-25.25Q159.22-25.20 159.77-25.01L159.77-25.01L159.77-25.01Q160.32-24.82 160.63-24.77L160.63-24.77L160.63-24.77Q160.94-24.72 161.47-24.60L161.47-24.60L161.47-24.60Q162-24.48 162.38-24.46L162.38-24.46L162.38-24.46Q162.77-24.43 163.30-24.38L163.30-24.38L163.30-24.38Q163.82-24.34 164.30-24.34L164.30-24.34L164.30-24.34Q166.66-24.34 168.41-25.13L168.41-25.13L168.41-25.13Q170.16-25.92 170.95-26.88L170.95-26.88L170.95-26.88Q171.74-27.84 172.22-29.09L172.22-29.09L172.22-29.09Q172.80-30.62 172.80-31.87L172.80-31.87L173.86-31.87L173.86-31.87Q173.86-30.72 173.26-29.06L173.26-29.06L173.26-29.06Q172.66-27.41 171.77-26.28L171.77-26.28L171.77-26.28Q170.88-25.15 168.91-24.24L168.91-24.24L168.91-24.24Q166.94-23.33 164.23-23.33L164.23-23.33L164.23-23.33Q161.52-23.33 158.78-24.19L158.78-24.19L158.78-24.19Q155.52-19.58 151.92-5.62L151.92-5.62L151.92-5.62Q150.14 1.39 146.81 4.58L146.81 4.58L146.81 4.58Q143.47 7.78 137.16 7.78L137.16 7.78L137.16 7.78Q130.85 7.78 127.73 3.94L127.73 3.94L127.73 3.94Q124.99 0.53 124.99-3.98L124.99-3.98L124.99-3.98Q124.99-4.56 125.04-5.14L125.04-5.14L126.14-5.14L126.14-4.46L126.14-4.46Q126.14-1.15 127.92 2.02L127.92 2.02L127.92 2.02Q128.69 3.36 129.77 4.34L129.77 4.34L129.77 4.34Q130.85 5.33 132.67 6L132.67 6L132.67 6Q134.50 6.67 136.75 6.67L136.75 6.67L136.75 6.67Q140.50 6.67 142.68 3.65L142.68 3.65L142.68 3.65Q144.86 0.62 146.90-8.04L146.90-8.04L146.90-8.04Q148.94-16.70 151.08-20.42L151.08-20.42L151.08-20.42Q153.22-24.14 157.30-24.72L157.30-24.72L157.30-24.72Q156.05-25.20 154.66-25.80L154.66-25.80L154.66-25.80Q153.26-26.40 151.99-26.86L151.99-26.86L151.99-26.86Q150.72-27.31 148.34-27.77L148.34-27.77L148.34-27.77Q145.97-28.22 143.04-28.22L143.04-28.22L143.04-28.22Q140.11-28.22 137.59-27.17L137.59-27.17L137.59-27.17Q135.07-26.11 133.68-24.38L133.68-24.38L133.68-24.38Q130.90-21.02 130.90-16.61L130.90-16.61L130.90-16.61Q130.90-14.11 131.81-12.22L131.81-12.22L131.81-12.22Q132.72-10.32 134.02-9.41L134.02-9.41L134.02-9.41Q136.66-7.63 138.82-7.39L138.82-7.39L139.73-7.30L139.44-6.24L139.44-6.24Q138.24-6.24 136.34-6.98L136.34-6.98L136.34-6.98Q134.45-7.73 133.13-8.74" fill="#7c807b" stroke="none" stroke-width="none" transform="translate(-107.20498657226562,12.54725108753552)" style="fill: rgb(124, 128, 123);"></path></g><g class="path" style="transform-origin: 65.69px 3.21225px; transform: scale(0.91); animation: 1s linear -0.12s infinite normal forwards running breath-e5e6472a-b182-41fb-9129-fe9933200623;"><path d="M164.88-16.37L164.16-16.94L164.16-16.94Q165.60-18.67 167.78-18.67L167.78-18.67L167.78-18.67Q169.97-18.67 171.17-17.57L171.17-17.57L171.17-17.57Q172.37-16.46 172.37-14.45L172.37-14.45L172.37-14.16L172.37-14.16Q174.53-18.67 177.98-18.67L177.98-18.67L177.98-18.67Q181.68-18.67 181.68-14.83L181.68-14.83L181.68-14.83Q181.68-13.25 180.62-11.47L180.62-11.47L180.62-11.47Q179.57-9.70 178.51-8.09L178.51-8.09L178.51-8.09Q177.46-6.48 177.46-5.23L177.46-5.23L176.30-5.23L176.30-5.23Q176.30-7.01 178.37-10.03L178.37-10.03L178.37-10.03Q180.43-13.06 180.43-14.71L180.43-14.71L180.43-14.71Q180.43-16.37 179.78-16.97L179.78-16.97L179.78-16.97Q179.14-17.57 177.86-17.57L177.86-17.57L177.86-17.57Q176.59-17.57 175.37-16.46L175.37-16.46L175.37-16.46Q174.14-15.36 173.33-13.68L173.33-13.68L173.33-13.68Q172.03-11.18 171.60-9.60L171.60-9.60L171.60-9.55L169.87 0L164.11 0L167.28-17.71L167.28-17.71Q165.84-17.57 164.88-16.37L164.88-16.37" fill="#7c807b" stroke="none" stroke-width="none" transform="translate(-107.20498657226562,12.54725108753552)" style="fill: rgb(124, 128, 123);"></path></g><g class="path" style="transform-origin: 83.74px 3.42726px; transform: scale(0.91); animation: 1s linear -0.06s infinite normal forwards running breath-e5e6472a-b182-41fb-9129-fe9933200623;"><path d="M193.06-18.67L193.06-18.67L193.06-18.67Q199.15-18.67 199.15-13.82L199.15-13.82L199.15-13.82Q199.15-10.80 196.30-9.24L196.30-9.24L196.30-9.24Q193.44-7.68 188.16-7.63L188.16-7.63L188.16-7.63Q188.06-5.90 188.06-4.90L188.06-4.90L188.06-4.90Q188.06-2.74 189.05-1.70L189.05-1.70L189.05-1.70Q190.03-0.67 191.52-0.67L191.52-0.67L191.52-0.67Q193.01-0.67 194.23-1.25L194.23-1.25L194.23-1.25Q195.46-1.82 196.18-2.62L196.18-2.62L196.18-2.62Q196.90-3.41 197.42-4.27L197.42-4.27L197.42-4.27Q198.38-5.86 198.38-6.29L198.38-6.29L199.25-5.90L199.25-5.90Q199.10-5.14 198.38-3.86L198.38-3.86L198.38-3.86Q197.66-2.59 196.80-1.78L196.80-1.78L196.80-1.78Q195.94-0.96 194.26-0.26L194.26-0.26L194.26-0.26Q192.58 0.43 190.51 0.43L190.51 0.43L190.51 0.43Q186.62 0.43 184.63-1.42L184.63-1.42L184.63-1.42Q182.64-3.26 182.64-6.48L182.64-6.48L182.64-6.48Q182.64-12.19 185.47-15.43L185.47-15.43L185.47-15.43Q188.30-18.67 193.06-18.67zM197.95-13.82L197.95-13.82Q197.95-15.41 197.02-16.44L197.02-16.44L197.02-16.44Q196.08-17.47 194.23-17.47L194.23-17.47L194.23-17.47Q192.38-17.47 190.63-15.26L190.63-15.26L190.63-15.26Q188.88-13.06 188.30-8.74L188.30-8.74L188.30-8.74Q197.95-8.78 197.95-13.82L197.95-13.82" fill="#7c807b" stroke="none" stroke-width="none" transform="translate(-107.20498657226562,12.54725108753552)" style="fill: rgb(124, 128, 123);"></path></g><g class="path" style="transform-origin: 102.795px 3.42726px; transform: scale(0.91); animation: 1s linear 0s infinite normal forwards running breath-e5e6472a-b182-41fb-9129-fe9933200623;"><path d="M212.11-18.67L212.11-18.67L212.11-18.67Q218.21-18.67 218.21-13.82L218.21-13.82L218.21-13.82Q218.21-10.80 215.35-9.24L215.35-9.24L215.35-9.24Q212.50-7.68 207.22-7.63L207.22-7.63L207.22-7.63Q207.12-5.90 207.12-4.90L207.12-4.90L207.12-4.90Q207.12-2.74 208.10-1.70L208.10-1.70L208.10-1.70Q209.09-0.67 210.58-0.67L210.58-0.67L210.58-0.67Q212.06-0.67 213.29-1.25L213.29-1.25L213.29-1.25Q214.51-1.82 215.23-2.62L215.23-2.62L215.23-2.62Q215.95-3.41 216.48-4.27L216.48-4.27L216.48-4.27Q217.44-5.86 217.44-6.29L217.44-6.29L218.30-5.90L218.30-5.90Q218.16-5.14 217.44-3.86L217.44-3.86L217.44-3.86Q216.72-2.59 215.86-1.78L215.86-1.78L215.86-1.78Q214.99-0.96 213.31-0.26L213.31-0.26L213.31-0.26Q211.63 0.43 209.57 0.43L209.57 0.43L209.57 0.43Q205.68 0.43 203.69-1.42L203.69-1.42L203.69-1.42Q201.70-3.26 201.70-6.48L201.70-6.48L201.70-6.48Q201.70-12.19 204.53-15.43L204.53-15.43L204.53-15.43Q207.36-18.67 212.11-18.67zM217.01-13.82L217.01-13.82Q217.01-15.41 216.07-16.44L216.07-16.44L216.07-16.44Q215.14-17.47 213.29-17.47L213.29-17.47L213.29-17.47Q211.44-17.47 209.69-15.26L209.69-15.26L209.69-15.26Q207.94-13.06 207.36-8.74L207.36-8.74L207.36-8.74Q217.01-8.78 217.01-13.82L217.01-13.82" fill="#7c807b" stroke="none" stroke-width="none" transform="translate(-107.20498657226562,12.54725108753552)" style="fill: rgb(124, 128, 123);"></path></g></g>
</g>
<style id="breath-e5e6472a-b182-41fb-9129-fe9933200623" data-anikit="">@keyframes breath-e5e6472a-b182-41fb-9129-fe9933200623
{
  0% {
    animation-timing-function: cubic-bezier(0.9647,0.2413,-0.0705,0.7911);
    transform: scale(0.9099999999999999);
  }
  51% {
    animation-timing-function: cubic-bezier(0.9226,0.2631,-0.0308,0.7628);
    transform: scale(1.02994);
  }
  100% {
    transform: scale(0.9099999999999999);
  }
}</style><style id="breath-e5e6472a-b182-41fb-9129-fe9933200623" data-anikit="">@keyframes breath-e5e6472a-b182-41fb-9129-fe9933200623
{
  0% {
    animation-timing-function: cubic-bezier(0.9647,0.2413,-0.0705,0.7911);
    transform: scale(0.9099999999999999);
  }
  51% {
    animation-timing-function: cubic-bezier(0.9226,0.2631,-0.0308,0.7628);
    transform: scale(1.02994);
  }
  100% {
    transform: scale(0.9099999999999999);
  }
}</style></svg>